<?xml version="1.0" standalone="no"?>
<!DOCTYPE svg PUBLIC "-//W3C//DTD SVG 20010904//EN"
 "http://www.w3.org/TR/2001/REC-SVG-20010904/DTD/svg10.dtd">
<svg version="1.0" xmlns="http://www.w3.org/2000/svg"
 width="56.000000pt" height="42.000000pt" viewBox="0 0 56.000000 42.000000"
 preserveAspectRatio="xMidYMid meet">

<g transform="translate(0.000000,42.000000) scale(0.100000,-0.100000)"
fill="#000000" stroke="none">
<path d="M51 318 c1 -29 4 -44 6 -33 3 11 12 24 20 30 19 14 13 49 -10 53 -14
3 -17 -4 -16 -50z m16 10 c-3 -7 -5 -2 -5 12 0 14 2 19 5 13 2 -7 2 -19 0 -25z"/>
<path d="M101 318 c1 -29 4 -43 6 -30 2 12 8 22 13 22 5 0 11 -10 13 -22 2
-13 5 1 6 30 1 46 -1 52 -19 52 -18 0 -20 -6 -19 -52z m29 27 c0 -8 -4 -15
-10 -15 -5 0 -10 7 -10 15 0 8 5 15 10 15 6 0 10 -7 10 -15z"/>
<path d="M162 318 c2 -39 7 -53 18 -53 11 0 16 14 18 53 3 47 1 52 -18 52 -19
0 -21 -5 -18 -52z m28 2 c0 -22 -4 -40 -10 -40 -5 0 -10 18 -10 40 0 22 5 40
10 40 6 0 10 -18 10 -40z"/>
<path d="M217 362 c6 -4 13 -28 15 -52 l3 -45 5 53 c5 47 3 52 -15 52 -13 0
-16 -3 -8 -8z"/>
<path d="M260 320 c0 -33 4 -50 13 -50 8 0 12 17 12 50 0 33 -4 50 -12 50 -9
0 -13 -17 -13 -50z"/>
<path d="M312 320 c0 -35 2 -48 7 -35 7 18 8 18 18 1 7 -13 9 -5 9 34 -1 41
-3 47 -13 34 -10 -14 -12 -14 -16 3 -3 10 -5 -7 -5 -37z"/>
<path d="M368 320 c2 -27 8 -50 12 -50 4 0 10 23 12 50 2 39 0 50 -12 50 -12
0 -14 -11 -12 -50z"/>
<path d="M412 318 c2 -39 7 -53 18 -53 11 0 16 14 18 53 3 47 1 52 -18 52 -19
0 -21 -5 -18 -52z m28 2 c0 -22 -4 -40 -10 -40 -5 0 -10 18 -10 40 0 22 5 40
10 40 6 0 10 -18 10 -40z"/>
<path d="M471 318 c1 -29 4 -43 6 -30 2 12 8 22 13 22 5 0 11 -10 13 -22 2
-13 5 1 6 30 1 46 -1 52 -19 52 -18 0 -20 -6 -19 -52z m29 27 c0 -8 -4 -15
-10 -15 -5 0 -10 7 -10 15 0 8 5 15 10 15 6 0 10 -7 10 -15z"/>
<path d="M87 197 c4 -6 -5 -8 -20 -5 -15 3 -24 1 -21 -3 3 -5 0 -9 -7 -9 -7 0
-3 -10 9 -23 12 -13 22 -31 22 -39 0 -27 49 -58 89 -57 l36 0 -45 14 c-49 16
-70 37 -70 72 0 16 6 23 19 23 15 0 21 -8 23 -32 2 -28 8 -34 31 -36 16 -2 35
2 43 9 12 10 17 10 27 0 9 -10 8 -16 -8 -28 -19 -15 -19 -15 5 -9 14 3 28 6
32 6 10 0 -22 60 -32 60 -5 0 -22 14 -39 31 -17 17 -31 25 -31 19 0 -9 -4 -9
-16 1 -18 15 -56 20 -47 6z m73 -77 c0 -5 -2 -10 -4 -10 -3 0 -8 5 -11 10 -3
6 -1 10 4 10 6 0 11 -4 11 -10z"/>
<path d="M427 193 c-9 -10 -17 -12 -17 -6 0 5 -16 -5 -36 -23 -19 -19 -39 -34
-44 -34 -4 0 -10 -10 -13 -22 -6 -23 6 -38 32 -38 12 0 11 3 -2 13 -12 8 -14
16 -7 27 7 12 12 12 22 2 17 -17 65 -15 76 4 5 9 7 25 5 35 -4 14 0 19 15 19
59 0 27 -68 -43 -92 -48 -16 -48 -17 -17 -18 43 0 92 28 92 53 0 11 14 32 31
48 l32 30 -29 -11 c-27 -9 -28 -9 -9 5 18 14 17 15 -14 9 -28 -6 -33 -4 -26 7
6 11 5 12 -6 2 -16 -15 -33 -17 -24 -3 9 15 1 12 -18 -7z m-7 -67 c0 -3 -4 -8
-10 -11 -5 -3 -10 -1 -10 4 0 6 5 11 10 11 6 0 10 -2 10 -4z"/>
</g>
</svg>
